<svg width="86" height="136" viewBox="0 0 86 136" fill="none" xmlns="http://www.w3.org/2000/svg">
<path d="M32.9803 4.63863C40.8671 15.1812 50.4912 27.6824 60.8177 27.2192M44 1C40.05 1 36.3903 2.23741 33.3857 4.34589C37.3532 9.64924 41.7303 15.4057 46.4031 19.7633C51.1157 24.1579 56.0312 27.036 61.0442 26.7059C61.9815 24.4919 62.5 22.0571 62.5 19.5C62.5 9.28273 54.2173 1 44 1ZM60.5743 27.728C55.3289 27.8557 50.3289 24.7915 45.7211 20.4947C40.973 16.0669 36.5439 10.237 32.5829 4.94216C28.2694 8.32987 25.5 13.5915 25.5 19.5C25.5 29.7173 33.7827 38 44 38C51.2607 38 57.5455 33.8172 60.5743 27.728Z" fill="#F9CE9C" stroke="black"/>
<path d="M33.0851 4.54255C35.9149 7.37234 46.8297 27.9894 60.9787 27.1809C65.0212 19.0957 61.383 10.6064 56.532 5.75534C48.0426 -1.92553 36.7234 0.500005 33.0851 4.54255Z" fill="#543C00" stroke="black"/>
<path fill-rule="evenodd" clip-rule="evenodd" d="M33.6835 135.264V135.5H35.6835V86H33.6835V133.136L23.6835 129.5L23 131.38L33.6835 135.264Z" fill="black"/>
<path fill-rule="evenodd" clip-rule="evenodd" d="M53.6835 135.401V136H55.6835V134V86H53.6835V133.273L44.6835 130L44 131.88L53.6835 135.401Z" fill="black"/>
<path fill-rule="evenodd" clip-rule="evenodd" d="M56 41H34V86C34 92.0751 38.9249 97 45 97C51.0751 97 56 92.0751 56 86V41Z" fill="#3EACCF"/>
<path d="M26.6018 56.0068C4.77356 55.6935 0.471429 66.3184 1.0489 71.6701" stroke="black" stroke-width="2"/>
<path d="M62 56.0061C81.2017 55.7243 84.9862 65.2826 84.4782 70.097" stroke="black" stroke-width="2"/>
<path fill-rule="evenodd" clip-rule="evenodd" d="M33 40.6245C29.134 40.6245 26 43.7585 26 47.6245V95.6245C26 99.4905 29.134 102.625 33 102.625H34.14V40.6245H33ZM55.6 40.6245V102.625H56C59.866 102.625 63 99.4905 63 95.6245V47.6245C63 43.7585 59.866 40.6245 56 40.6245H55.6Z" fill="#3EACCF"/>
</svg>
