<svg width="86" height="107" viewBox="0 0 86 107" fill="none" xmlns="http://www.w3.org/2000/svg">
<path d="M32.9803 5.13863C40.8671 15.6812 50.4912 28.1824 60.8177 27.7192M44 1.5C40.05 1.5 36.3903 2.73741 33.3857 4.84589C37.3532 10.1492 41.7303 15.9057 46.4031 20.2633C51.1157 24.6579 56.0312 27.536 61.0442 27.2059C61.9815 24.9919 62.5 22.5571 62.5 20C62.5 9.78273 54.2173 1.5 44 1.5ZM60.5743 28.228C55.3289 28.3557 50.3289 25.2915 45.7211 20.9947C40.973 16.5669 36.5439 10.737 32.5829 5.44216C28.2694 8.82987 25.5 14.0915 25.5 20C25.5 30.2173 33.7827 38.5 44 38.5C51.2607 38.5 57.5455 34.3172 60.5743 28.228Z" fill="#F9CE9C" stroke="black"/>
<path d="M33.0851 5.04255C35.9149 7.87234 46.8297 28.4894 60.9787 27.6809C65.0212 19.5957 61.383 11.1064 56.532 6.25534C48.0426 -1.42553 36.7234 1 33.0851 5.04255Z" fill="#543C00" stroke="black"/>
<path fill-rule="evenodd" clip-rule="evenodd" d="M41 80.6471L57 91L55.9135 92.6791L41 83.0292V101V102.5H40.4546L40.3165 102.88L39.2727 102.5H39V102.401L29.3165 98.8796L30 97L39 100.273V81.7351L38.9135 81.6791L39 81.5455V80H40H41V80.6471Z" fill="black"/>
<path fill-rule="evenodd" clip-rule="evenodd" d="M20.4754 73.9616L36.4754 89.3465L35.6769 91.1802L20.4754 76.563V107H18.4754V106.32L8.5246 100.943L8.99997 99L18.4754 104.12V73.5641H19.2298L19.4754 73L20.062 73.5641H20.4754V73.9616Z" fill="black"/>
<path fill-rule="evenodd" clip-rule="evenodd" d="M56 41.5H34V86.5C34 92.5751 38.9249 97.5 45 97.5C51.0751 97.5 56 92.5751 56 86.5V41.5Z" fill="#3EACCF"/>
<path d="M26.6018 56.5068C4.77356 56.1935 0.471429 66.8184 1.0489 72.1701" stroke="black" stroke-width="2"/>
<path d="M62 56.5061C81.2017 56.2243 84.9862 65.7826 84.4782 70.597" stroke="black" stroke-width="2"/>
<path fill-rule="evenodd" clip-rule="evenodd" d="M33 41.1245C29.134 41.1245 26 44.2585 26 48.1245V96.1245C26 99.9905 29.134 103.125 33 103.125H34.14V41.1245H33ZM55.6 41.1245V103.125H56C59.866 103.125 63 99.9905 63 96.1245V48.1245C63 44.2585 59.866 41.1245 56 41.1245H55.6Z" fill="#3EACCF"/>
</svg>
