<svg width="124" height="203" viewBox="0 0 124 203" fill="none" xmlns="http://www.w3.org/2000/svg">
<mask id="path-1-inside-1" fill="white">
<path fill-rule="evenodd" clip-rule="evenodd" d="M62.9999 83C52.7253 83 44.174 90.3789 42.3564 100.126L9.32572 98.1912C4.63934 97.9166 0.61769 101.493 0.343117 106.18C0.0685441 110.866 3.64502 114.888 8.3314 115.162L41.9999 117.135V136C41.9999 139.249 42.7377 142.326 44.0549 145.071C43.6888 145.763 43.4129 146.517 43.2455 147.322L33.8643 192.435C32.9085 197.031 35.8596 201.532 40.4557 202.487C45.0518 203.443 49.5525 200.492 50.5082 195.896L58.6888 156.557C60.0802 156.847 61.5222 157 62.9999 157C63.8792 157 64.7458 156.946 65.5967 156.841L66.7799 193.103C66.933 197.795 70.8607 201.475 75.5526 201.322C80.2445 201.168 83.924 197.241 83.7709 192.549L82.2682 146.495C82.2497 145.928 82.176 145.376 82.0525 144.844C83.3022 142.156 83.9999 139.159 83.9999 136V104C83.9999 92.402 74.5979 83 62.9999 83Z"/>
</mask>
<path fill-rule="evenodd" clip-rule="evenodd" d="M62.9999 83C52.7253 83 44.174 90.3789 42.3564 100.126L9.32572 98.1912C4.63934 97.9166 0.61769 101.493 0.343117 106.18C0.0685441 110.866 3.64502 114.888 8.3314 115.162L41.9999 117.135V136C41.9999 139.249 42.7377 142.326 44.0549 145.071C43.6888 145.763 43.4129 146.517 43.2455 147.322L33.8643 192.435C32.9085 197.031 35.8596 201.532 40.4557 202.487C45.0518 203.443 49.5525 200.492 50.5082 195.896L58.6888 156.557C60.0802 156.847 61.5222 157 62.9999 157C63.8792 157 64.7458 156.946 65.5967 156.841L66.7799 193.103C66.933 197.795 70.8607 201.475 75.5526 201.322C80.2445 201.168 83.924 197.241 83.7709 192.549L82.2682 146.495C82.2497 145.928 82.176 145.376 82.0525 144.844C83.3022 142.156 83.9999 139.159 83.9999 136V104C83.9999 92.402 74.5979 83 62.9999 83Z" fill="#0029FF"/>
<path d="M42.3564 100.126L42.2979 101.125L43.1779 101.176L43.3395 100.31L42.3564 100.126ZM9.32572 98.1912L9.26724 99.1895L9.26724 99.1895L9.32572 98.1912ZM0.343117 106.18L-0.655171 106.121L0.343117 106.18ZM8.3314 115.162L8.38989 114.164L8.38989 114.164L8.3314 115.162ZM41.9999 117.135H42.9999V116.192L42.0584 116.136L41.9999 117.135ZM44.0549 145.071L44.9387 145.539L45.1746 145.094L44.9565 144.639L44.0549 145.071ZM43.2455 147.322L44.2246 147.526L44.2246 147.526L43.2455 147.322ZM33.8643 192.435L34.8433 192.638L34.8433 192.638L33.8643 192.435ZM40.4557 202.487L40.2521 203.466L40.2521 203.466L40.4557 202.487ZM50.5082 195.896L49.5292 195.692L49.5292 195.692L50.5082 195.896ZM58.6888 156.557L58.893 155.578L57.9134 155.374L57.7097 156.353L58.6888 156.557ZM65.5967 156.841L66.5962 156.808L66.5605 155.715L65.4743 155.849L65.5967 156.841ZM66.7799 193.103L65.7805 193.136L65.7805 193.136L66.7799 193.103ZM75.5526 201.322L75.52 200.322L75.52 200.322L75.5526 201.322ZM83.7709 192.549L84.7704 192.516L84.7704 192.516L83.7709 192.549ZM82.2682 146.495L81.2687 146.528L81.2687 146.528L82.2682 146.495ZM82.0525 144.844L81.1458 144.422L81.0006 144.734L81.0784 145.069L82.0525 144.844ZM43.3395 100.31C45.0704 91.0269 53.2156 84 62.9999 84V82C52.2349 82 43.2776 89.7308 41.3734 99.9432L43.3395 100.31ZM9.26724 99.1895L42.2979 101.125L42.4149 99.1282L9.38421 97.1929L9.26724 99.1895ZM1.34141 106.238C1.58368 102.103 5.13219 98.9472 9.26724 99.1895L9.38421 97.1929C4.14649 96.886 -0.348295 100.883 -0.655171 106.121L1.34141 106.238ZM8.38989 114.164C4.25485 113.922 1.09913 110.373 1.34141 106.238L-0.655171 106.121C-0.962047 111.359 3.03519 115.854 8.27291 116.16L8.38989 114.164ZM42.0584 116.136L8.38989 114.164L8.27291 116.16L41.9414 118.133L42.0584 116.136ZM42.9999 136V117.135H40.9999V136H42.9999ZM44.9565 144.639C43.7027 142.025 42.9999 139.096 42.9999 136H40.9999C40.9999 139.402 41.7727 142.626 43.1533 145.504L44.9565 144.639ZM44.2246 147.526C44.3726 146.814 44.6162 146.149 44.9387 145.539L43.1711 144.604C42.7614 145.378 42.4531 146.221 42.2665 147.118L44.2246 147.526ZM34.8433 192.638L44.2246 147.526L42.2665 147.118L32.8852 192.231L34.8433 192.638ZM40.6593 201.508C36.6039 200.665 34 196.694 34.8433 192.638L32.8852 192.231C31.817 197.368 35.1153 202.398 40.2521 203.466L40.6593 201.508ZM49.5292 195.692C48.6858 199.748 44.7147 202.352 40.6593 201.508L40.2521 203.466C45.3889 204.535 50.4191 201.236 51.4873 196.099L49.5292 195.692ZM57.7097 156.353L49.5292 195.692L51.4873 196.099L59.6678 156.761L57.7097 156.353ZM62.9999 156C61.5913 156 60.2177 155.855 58.893 155.578L58.4845 157.536C59.9428 157.84 61.4532 158 62.9999 158V156ZM65.4743 155.849C64.6639 155.948 63.8382 156 62.9999 156V158C63.9202 158 64.8277 157.943 65.7191 157.834L65.4743 155.849ZM67.7794 193.071L66.5962 156.808L64.5972 156.874L65.7805 193.136L67.7794 193.071ZM75.52 200.322C71.3801 200.457 67.9145 197.211 67.7794 193.071L65.7805 193.136C65.9516 198.38 70.3413 202.492 75.5852 202.321L75.52 200.322ZM82.7714 192.581C82.9065 196.721 79.6599 200.187 75.52 200.322L75.5852 202.321C80.8292 202.15 84.9415 197.76 84.7704 192.516L82.7714 192.581ZM81.2687 146.528L82.7714 192.581L84.7704 192.516L83.2676 146.463L81.2687 146.528ZM81.0784 145.069C81.1872 145.539 81.2523 146.026 81.2687 146.528L83.2676 146.463C83.247 145.83 83.1648 145.213 83.0267 144.618L81.0784 145.069ZM82.9999 136C82.9999 139.011 82.3353 141.863 81.1458 144.422L82.9593 145.265C84.2691 142.448 84.9999 139.308 84.9999 136H82.9999ZM82.9999 104V136H84.9999V104H82.9999ZM62.9999 84C74.0456 84 82.9999 92.9543 82.9999 104H84.9999C84.9999 91.8497 75.1502 82 62.9999 82V84Z" fill="black" mask="url(#path-1-inside-1)"/>
<path d="M35 56.2132C41.2188 16.462 59.3875 20.1841 70.4839 20.0352C77.5562 20.1478 91.701 24.8057 91.701 42.5362C99.1944 43.6648 95.3592 52.6401 91.701 56.2132C92.8716 60.8583 87.7014 75.0322 82.58 82.6251C78.5571 88.5894 68.3809 93.6357 63.4667 96.0448C59.4112 98.0329 49.2389 96.7801 47.2 93.5596C43.9467 85.6073 35 73.1856 35 56.2132Z" fill="#F9CE9C"/>
<path d="M85.02 58.7679C84.2737 52.6213 85.1164 42.3673 89.1403 42.3673C90.1165 42.3673 90.9659 42.4255 91.701 42.5362M91.701 42.5362C99.1944 43.6648 95.3592 52.6401 91.701 56.2132C92.8716 60.8583 87.7014 75.0322 82.58 82.6251C78.5571 88.5894 68.3809 93.6357 63.4667 96.0448C59.4112 98.0329 49.2389 96.7801 47.2 93.5596C43.9467 85.6073 35 73.1856 35 56.2132C41.2188 16.462 59.3875 20.1841 70.4839 20.0352C77.5562 20.1478 91.701 24.8057 91.701 42.5362Z" stroke="black"/>
<path fill-rule="evenodd" clip-rule="evenodd" d="M50.8642 53.8331L44.6162 66.958C44.4132 66.9858 44.2076 67 44 67C40.134 67 37 62.0751 37 56C37 49.9249 40.134 45 44 45C47.394 45 50.2238 48.7957 50.8642 53.8331Z" fill="white"/>
<path d="M50 68.5C54.8 68.1 54.8333 71 52.5 72.5C48 73.5 39.4667 73.5 41 71.5C44.8333 66.5 52 55.6 50 52" stroke="black"/>
<ellipse cx="62" cy="56" rx="7" ry="11" fill="white"/>
<path d="M63 57C63 58.6569 61.8807 60 60.5 60C59.1193 60 58 58.6569 58 57C58 55.3431 59.1193 54 60.5 54C61.8807 54 63 55.3431 63 57Z" fill="black"/>
<ellipse cx="44.5" cy="57" rx="2.5" ry="3" fill="black"/>
<path d="M51 84.5321C53.1667 87.8654 58.1 92.2321 60.5 83.0321C63.5 71.5321 51 79.0321 51 84.5321Z" stroke="black"/>
<path d="M99 33C99 51.2254 84.2254 39.5 66 39.5C47.7746 39.5 33 51.2254 33 33C33 14.7746 47.7746 0 66 0C84.2254 0 99 14.7746 99 33Z" fill="#BC9260"/>
<ellipse cx="66" cy="35" rx="58" ry="9" fill="#BC9260"/>
<path fill-rule="evenodd" clip-rule="evenodd" d="M98.76 29H33.24C33.5329 26.5759 34.0886 24.2328 34.8777 22H97.1223C97.9114 24.2328 98.4671 26.5759 98.76 29Z" fill="#543C00"/>
</svg>
