<svg width="121" height="167" viewBox="0 0 121 167" fill="none" xmlns="http://www.w3.org/2000/svg">
<mask id="path-1-inside-1" fill="white">
<path fill-rule="evenodd" clip-rule="evenodd" d="M80.6663 125.34C79.5448 120.78 74.938 117.987 70.3765 119.1L49.8596 124.11C46.7923 124.859 44.5266 127.183 43.7124 130.012C42.9709 131.175 42.5011 132.533 42.3989 134.005L40.9311 155.153C40.605 159.852 44.1501 163.925 48.8495 164.249C53.5488 164.574 57.6227 161.027 57.9489 156.328L59.1273 139.35L74.4375 135.612C78.999 134.498 81.7877 129.899 80.6663 125.34Z"/>
</mask>
<path fill-rule="evenodd" clip-rule="evenodd" d="M80.6663 125.34C79.5448 120.78 74.938 117.987 70.3765 119.1L49.8596 124.11C46.7923 124.859 44.5266 127.183 43.7124 130.012C42.9709 131.175 42.5011 132.533 42.3989 134.005L40.9311 155.153C40.605 159.852 44.1501 163.925 48.8495 164.249C53.5488 164.574 57.6227 161.027 57.9489 156.328L59.1273 139.35L74.4375 135.612C78.999 134.498 81.7877 129.899 80.6663 125.34Z" fill="#0029FF"/>
<path d="M70.3765 119.1L70.1393 118.129L70.1393 118.129L70.3765 119.1ZM80.6663 125.34L81.6373 125.101L81.6373 125.101L80.6663 125.34ZM49.8596 124.11L50.0967 125.081L50.0967 125.081L49.8596 124.11ZM43.7124 130.012L44.5554 130.55L44.6333 130.428L44.6733 130.289L43.7124 130.012ZM42.3989 134.005L43.3965 134.074L42.3989 134.005ZM40.9311 155.153L39.9335 155.084L40.9311 155.153ZM48.8495 164.249L48.7806 165.247L48.8495 164.249ZM57.9489 156.328L58.9465 156.397L58.9465 156.397L57.9489 156.328ZM59.1273 139.35L58.8901 138.379L58.1802 138.552L58.1297 139.281L59.1273 139.35ZM74.4375 135.612L74.2003 134.641L74.2003 134.641L74.4375 135.612ZM70.6137 120.072C74.6393 119.089 78.7055 121.555 79.6952 125.578L81.6373 125.101C80.3842 120.006 75.2366 116.884 70.1393 118.129L70.6137 120.072ZM50.0967 125.081L70.6137 120.072L70.1393 118.129L49.6224 123.138L50.0967 125.081ZM44.6733 130.289C45.3924 127.791 47.3917 125.742 50.0967 125.081L49.6224 123.138C46.193 123.976 43.6609 126.576 42.7514 129.736L44.6733 130.289ZM43.3965 134.074C43.4868 132.773 43.9015 131.575 44.5554 130.55L42.8693 129.475C42.0403 130.774 41.5154 132.293 41.4013 133.936L43.3965 134.074ZM41.9287 155.222L43.3965 134.074L41.4013 133.936L39.9335 155.084L41.9287 155.222ZM48.9183 163.251C44.7701 162.965 41.6408 159.37 41.9287 155.222L39.9335 155.084C39.5691 160.334 43.5302 164.884 48.7806 165.247L48.9183 163.251ZM56.9513 156.259C56.6634 160.407 53.0668 163.538 48.9183 163.251L48.7806 165.247C54.0307 165.609 58.5821 161.647 58.9465 156.397L56.9513 156.259ZM58.1297 139.281L56.9513 156.259L58.9465 156.397L60.1249 139.419L58.1297 139.281ZM74.2003 134.641L58.8901 138.379L59.3644 140.322L74.6747 136.583L74.2003 134.641ZM79.6952 125.578C80.6845 129.601 78.2246 133.658 74.2003 134.641L74.6747 136.583C79.7733 135.339 82.8908 130.197 81.6373 125.101L79.6952 125.578Z" fill="black" mask="url(#path-1-inside-1)"/>
<rect x="-0.672315" y="0.219529" width="16.0002" height="50.3869" rx="8.0001" transform="matrix(-0.452874 0.891574 -0.891756 -0.452517 63.9297 106.172)" fill="#0029FF" stroke="black"/>
<mask id="path-4-inside-2" fill="white">
<path fill-rule="evenodd" clip-rule="evenodd" d="M38.5654 121.082C39.3739 121.345 40.1935 121.481 41.0021 121.5V126.72L37.3725 124.256C33.7616 121.804 28.9487 122.508 26.1763 125.742C24.0786 127.245 22.6848 129.678 22.6113 132.456L21.9506 157.45C21.8261 162.159 25.5425 166.076 30.2514 166.199C34.9603 166.321 38.8786 162.604 39.0031 157.895L39.3137 146.144L51.0982 154.144C52.0188 154.769 53.0175 155.189 54.0407 155.415C56.5165 156.436 59.2296 157 62.0743 157C73.7121 157 83.1465 147.566 83.1465 135.928V104.072C83.1465 92.4343 73.7121 83 62.0743 83C50.4616 83 41.043 92.3935 41.0023 103.997L11.1384 94.2724C6.67462 92.819 1.87626 95.2588 0.420985 99.722C-1.03429 104.185 1.40458 108.982 5.86838 110.435L38.5654 121.082Z"/>
</mask>
<path fill-rule="evenodd" clip-rule="evenodd" d="M38.5654 121.082C39.3739 121.345 40.1935 121.481 41.0021 121.5V126.72L37.3725 124.256C33.7616 121.804 28.9487 122.508 26.1763 125.742C24.0786 127.245 22.6848 129.678 22.6113 132.456L21.9506 157.45C21.8261 162.159 25.5425 166.076 30.2514 166.199C34.9603 166.321 38.8786 162.604 39.0031 157.895L39.3137 146.144L51.0982 154.144C52.0188 154.769 53.0175 155.189 54.0407 155.415C56.5165 156.436 59.2296 157 62.0743 157C73.7121 157 83.1465 147.566 83.1465 135.928V104.072C83.1465 92.4343 73.7121 83 62.0743 83C50.4616 83 41.043 92.3935 41.0023 103.997L11.1384 94.2724C6.67462 92.819 1.87626 95.2588 0.420985 99.722C-1.03429 104.185 1.40458 108.982 5.86838 110.435L38.5654 121.082Z" fill="#0029FF"/>
<path d="M41.0021 121.5H42.0021V120.523L41.0255 120.5L41.0021 121.5ZM38.5654 121.082L38.875 120.131L38.875 120.131L38.5654 121.082ZM41.0021 126.72L40.4404 127.547L42.0021 128.608V126.72H41.0021ZM37.3725 124.256L36.8108 125.083L36.8108 125.083L37.3725 124.256ZM26.1763 125.742L26.7587 126.555L26.8569 126.485L26.9354 126.393L26.1763 125.742ZM22.6113 132.456L23.611 132.483L23.611 132.483L22.6113 132.456ZM21.9506 157.45L20.9509 157.424L20.9509 157.424L21.9506 157.45ZM30.2514 166.199L30.2775 165.199L30.2775 165.199L30.2514 166.199ZM39.0031 157.895L38.0034 157.868L38.0034 157.868L39.0031 157.895ZM39.3137 146.144L39.8754 145.316L38.3624 144.289L38.3141 146.117L39.3137 146.144ZM51.0982 154.144L51.6599 153.317L51.6599 153.317L51.0982 154.144ZM54.0407 155.415L54.4222 154.49L54.3412 154.457L54.2556 154.438L54.0407 155.415ZM41.0023 103.997L40.6926 104.947L41.9974 105.372L42.0023 104L41.0023 103.997ZM11.1384 94.2724L10.8288 95.2233L11.1384 94.2724ZM0.420985 99.722L-0.529752 99.412L-0.529752 99.412L0.420985 99.722ZM5.86838 110.435L5.55876 111.386L5.55876 111.386L5.86838 110.435ZM41.0255 120.5C40.3131 120.483 39.59 120.364 38.875 120.131L38.2558 122.033C39.1578 122.326 40.0739 122.478 40.9787 122.499L41.0255 120.5ZM42.0021 126.72V121.5H40.0021V126.72H42.0021ZM41.5638 125.893L37.9342 123.428L36.8108 125.083L40.4404 127.547L41.5638 125.893ZM37.9342 123.428C33.8976 120.688 28.517 121.475 25.4171 125.091L26.9354 126.393C29.3803 123.541 33.6256 122.921 36.8108 125.083L37.9342 123.428ZM25.5938 124.929C23.2527 126.607 21.6937 129.325 21.6117 132.43L23.611 132.483C23.6758 130.031 24.9046 127.883 26.7587 126.555L25.5938 124.929ZM21.6117 132.43L20.9509 157.424L22.9502 157.477L23.611 132.483L21.6117 132.43ZM20.9509 157.424C20.8119 162.685 24.9642 167.061 30.2254 167.198L30.2775 165.199C26.1208 165.091 22.8404 161.633 22.9502 157.477L20.9509 157.424ZM30.2254 167.198C35.4862 167.335 39.8636 163.182 40.0027 157.921L38.0034 157.868C37.8935 162.025 34.4344 165.307 30.2775 165.199L30.2254 167.198ZM40.0027 157.921L40.3134 146.17L38.3141 146.117L38.0034 157.868L40.0027 157.921ZM38.752 146.971L50.5365 154.972L51.6599 153.317L39.8754 145.316L38.752 146.971ZM50.5365 154.972C51.5638 155.669 52.6805 156.139 53.8257 156.391L54.2556 154.438C53.3546 154.24 52.4738 153.87 51.6599 153.317L50.5365 154.972ZM62.0743 156C59.3627 156 56.7791 155.463 54.4222 154.49L53.6592 156.339C56.2539 157.41 59.0964 158 62.0743 158V156ZM82.1465 135.928C82.1465 147.013 73.1598 156 62.0743 156V158C74.2644 158 84.1465 148.118 84.1465 135.928H82.1465ZM82.1465 104.072V135.928H84.1465V104.072H82.1465ZM62.0743 84C73.1598 84 82.1465 92.9866 82.1465 104.072H84.1465C84.1465 91.882 74.2644 82 62.0743 82V84ZM42.0023 104C42.041 92.9478 51.0128 84 62.0743 84V82C49.9105 82 40.0449 91.8393 40.0023 103.993L42.0023 104ZM10.8288 95.2233L40.6926 104.947L41.3119 103.046L11.448 93.3216L10.8288 95.2233ZM1.37172 100.032C2.65584 96.0937 6.89 93.9408 10.8288 95.2233L11.448 93.3216C6.45924 91.6971 1.09669 94.4239 -0.529752 99.412L1.37172 100.032ZM6.178 109.484C2.2395 108.202 0.0876983 103.97 1.37172 100.032L-0.529752 99.412C-2.15629 104.4 0.569671 109.761 5.55876 111.386L6.178 109.484ZM38.875 120.131L6.178 109.484L5.55876 111.386L38.2558 122.033L38.875 120.131Z" fill="black" mask="url(#path-4-inside-2)"/>
<path d="M33.9782 56.2132C40.2184 16.462 58.4495 20.1841 69.584 20.0352C76.6807 20.1478 90.8741 24.8057 90.8741 42.5362C98.3932 43.6648 94.5448 52.6401 90.8741 56.2132C92.0487 60.8583 86.8607 75.0322 81.7217 82.6251C77.685 88.5894 67.4738 93.6357 62.5427 96.0448C58.4733 98.0329 48.2661 96.7801 46.2201 93.5596C42.9556 85.6073 33.9782 73.1856 33.9782 56.2132Z" fill="#F9CE9C"/>
<path d="M84.1701 58.7679C83.4212 52.6213 84.2668 42.3673 88.3046 42.3673C89.2841 42.3673 90.1364 42.4255 90.8741 42.5362M90.8741 42.5362C98.3932 43.6648 94.5448 52.6401 90.8741 56.2132C92.0487 60.8583 86.8607 75.0322 81.7217 82.6251C77.685 88.5894 67.4738 93.6357 62.5427 96.0448C58.4733 98.0329 48.2661 96.7801 46.2201 93.5596C42.9556 85.6073 33.9782 73.1856 33.9782 56.2132C40.2184 16.462 58.4495 20.1841 69.584 20.0352C76.6807 20.1478 90.8741 24.8057 90.8741 42.5362Z" stroke="black"/>
<path fill-rule="evenodd" clip-rule="evenodd" d="M49.8969 53.8331L43.6275 66.958C43.4237 66.9858 43.2175 67 43.0091 67C39.1299 67 35.9851 62.0751 35.9851 56C35.9851 49.9249 39.1299 45 43.0091 45C46.4148 45 49.2543 48.7957 49.8969 53.8331Z" fill="white"/>
<path d="M49.0298 68.5C53.8463 68.1 53.8797 71 51.5384 72.5C47.0229 73.5 38.4602 73.5 39.9988 71.5C43.8453 66.5 51.0366 55.6 49.0298 52" stroke="black"/>
<ellipse cx="61.071" cy="56" rx="7.02406" ry="11" fill="white"/>
<path d="M62.0744 57C62.0744 58.6569 60.9513 60 59.5658 60C58.1804 60 57.0573 58.6569 57.0573 57C57.0573 55.3431 58.1804 54 59.5658 54C60.9513 54 62.0744 55.3431 62.0744 57Z" fill="black"/>
<ellipse cx="43.5109" cy="57" rx="2.50859" ry="3" fill="black"/>
<path d="M47.3523 85.3053C49.5341 85.8829 54.5018 86.6396 56.9185 85.0453C59.9394 83.0524 47.3523 84.3521 47.3523 85.3053Z" stroke="black"/>
<path d="M95.1872 33C95.1872 51.2254 80.4126 39.5 62.1872 39.5C43.9618 39.5 29.1872 51.2254 29.1872 33C29.1872 14.7746 43.9618 0 62.1872 0C80.4126 0 95.1872 14.7746 95.1872 33Z" fill="#BC9260"/>
<ellipse cx="62.1872" cy="35" rx="58" ry="9" fill="#BC9260"/>
<path fill-rule="evenodd" clip-rule="evenodd" d="M94.9473 29H29.4272C29.7201 26.5759 30.2758 24.2328 31.065 22H93.3095C94.0986 24.2328 94.6544 26.5759 94.9473 29Z" fill="#543C00"/>
</svg>
