<svg width="543" height="290" viewBox="0 0 543 290" fill="none" xmlns="http://www.w3.org/2000/svg">
<rect width="543" height="290" fill="#E5E5E5"/>
<mask id="path-1-inside-1" fill="white">
<path fill-rule="evenodd" clip-rule="evenodd" d="M520.403 65.1856C533.552 60.662 543 48.1843 543 33.5C543 14.9985 528.002 0 509.5 0C504.417 0 499.599 1.13189 495.284 3.15734L495.21 3L18 226.606L46.4281 287.276L520.403 65.1856Z"/>
</mask>
<path fill-rule="evenodd" clip-rule="evenodd" d="M520.403 65.1856C533.552 60.662 543 48.1843 543 33.5C543 14.9985 528.002 0 509.5 0C504.417 0 499.599 1.13189 495.284 3.15734L495.21 3L18 226.606L46.4281 287.276L520.403 65.1856Z" fill="#543C00"/>
<path d="M520.403 65.1856L520.078 64.24L520.027 64.2574L519.979 64.2801L520.403 65.1856ZM495.284 3.15734L494.378 3.58167L494.803 4.48772L495.709 4.06259L495.284 3.15734ZM495.21 3L496.115 2.57567L495.691 1.67019L494.786 2.09448L495.21 3ZM18 226.606L17.5757 225.701L16.6702 226.125L17.0945 227.03L18 226.606ZM46.4281 287.276L45.5226 287.7L45.9469 288.606L46.8524 288.182L46.4281 287.276ZM542 33.5C542 47.7444 532.835 59.851 520.078 64.24L520.729 66.1312C534.269 61.473 544 48.6242 544 33.5H542ZM509.5 1C527.449 1 542 15.5507 542 33.5H544C544 14.4462 528.554 -1 509.5 -1V1ZM495.709 4.06259C499.894 2.09824 504.567 1 509.5 1V-1C504.268 -1 499.304 0.165533 494.859 2.25209L495.709 4.06259ZM494.304 3.42433L494.378 3.58167L496.189 2.73301L496.115 2.57567L494.304 3.42433ZM18.4243 227.512L495.634 3.90552L494.786 2.09448L17.5757 225.701L18.4243 227.512ZM47.3336 286.852L18.9055 226.182L17.0945 227.03L45.5226 287.7L47.3336 286.852ZM519.979 64.2801L46.0038 286.371L46.8524 288.182L520.828 66.0911L519.979 64.2801Z" fill="black" mask="url(#path-1-inside-1)"/>
<circle cx="34" cy="256" r="33.5" fill="#BC9260" stroke="black"/>
<rect width="1" height="1" transform="translate(47 238)" fill="white"/>
<line x1="88.7785" y1="210.552" x2="175.778" y2="167.552" stroke="black"/>
<line x1="270.802" y1="154.541" x2="314.802" y2="135.541" stroke="black"/>
<line x1="261.778" y1="167.552" x2="348.778" y2="124.552" stroke="black"/>
<line x1="476.202" y1="25.4572" x2="406.202" y2="56.4572" stroke="black"/>
<line x1="441.199" y1="48.4588" x2="381.199" y2="74.4588" stroke="black"/>
<line x1="176.215" y1="222.452" x2="94.2148" y2="261.452" stroke="black"/>
<line x1="524.221" y1="48.4483" x2="441.221" y2="89.4483" stroke="black"/>
</svg>
