<svg width="86" height="107" viewBox="0 0 86 107" fill="none" xmlns="http://www.w3.org/2000/svg">
<path d="M32.9803 5.13863C40.8671 15.6812 50.4912 28.1824 60.8177 27.7192M44 1.5C40.05 1.5 36.3903 2.73741 33.3857 4.84589C37.3532 10.1492 41.7303 15.9057 46.4031 20.2633C51.1157 24.6579 56.0312 27.536 61.0442 27.2059C61.9815 24.9919 62.5 22.5571 62.5 20C62.5 9.78273 54.2173 1.5 44 1.5ZM60.5743 28.228C55.3289 28.3557 50.3289 25.2915 45.7211 20.9947C40.973 16.5669 36.5439 10.737 32.5829 5.44216C28.2694 8.82987 25.5 14.0915 25.5 20C25.5 30.2173 33.7827 38.5 44 38.5C51.2607 38.5 57.5455 34.3172 60.5743 28.228Z" fill="#F9CE9C" stroke="black"/>
<path d="M33.0851 5.04255C35.9149 7.87234 46.8297 28.4894 60.9787 27.6809C65.0212 19.5957 61.383 11.1064 56.532 6.25534C48.0426 -1.42553 36.7234 1 33.0851 5.04255Z" fill="#543C00" stroke="black"/>
<path fill-rule="evenodd" clip-rule="evenodd" d="M41 80.6471L57 91L55.9135 92.6791L41 83.0292V101V102.5H40.4546L40.3165 102.88L39.2727 102.5H39V102.401L29.3165 98.8796L30 97L39 100.273V81.7351L38.9135 81.6791L39 81.5455V80H40H41V80.6471Z" fill="black"/>
<path fill-rule="evenodd" clip-rule="evenodd" d="M20.4754 73.9616L36.4754 89.3465L35.6769 91.1802L20.4754 76.563V107H18.4754V106.32L8.5246 100.943L8.99997 99L18.4754 104.12V73.5641H19.2298L19.4754 73L20.062 73.5641H20.4754V73.9616Z" fill="black"/>
<path d="M26.6018 56.5068C4.77356 56.1935 0.471429 66.8184 1.0489 72.1701" stroke="black" stroke-width="2"/>
<path d="M62 56.5061C81.2017 56.2243 84.9862 65.7826 84.4782 70.597" stroke="black" stroke-width="2"/>
<path fill-rule="evenodd" clip-rule="evenodd" d="M34.8085 10.9345L33.0417 7L31.2749 10.9345C31.1001 11.2355 31 11.5852 31 11.9583C31 13.0859 31.9141 14 33.0417 14C34.1692 14 35.0833 13.0859 35.0833 11.9583C35.0833 11.5852 34.9832 11.2355 34.8085 10.9345Z" fill="#A5FFFA"/>
<mask id="path-8-inside-1" fill="white">
<path fill-rule="evenodd" clip-rule="evenodd" d="M25 47C25 43.134 28.134 40 32 40H55C58.866 40 62 43.134 62 47V95C62 98.866 58.866 102 55 102H54V89.9644C52.2608 93.7482 48.4372 96.3755 44 96.3755C39.5628 96.3755 35.7392 93.7482 34 89.9644V102H32C28.134 102 25 98.866 25 95V47Z"/>
</mask>
<path fill-rule="evenodd" clip-rule="evenodd" d="M25 47C25 43.134 28.134 40 32 40H55C58.866 40 62 43.134 62 47V95C62 98.866 58.866 102 55 102H54V89.9644C52.2608 93.7482 48.4372 96.3755 44 96.3755C39.5628 96.3755 35.7392 93.7482 34 89.9644V102H32C28.134 102 25 98.866 25 95V47Z" fill="#3EACCF"/>
<path d="M54 102H52V104H54V102ZM54 89.9644H56L52.1828 89.1292L54 89.9644ZM34 89.9644L35.8172 89.1292L32 89.9644H34ZM34 102V104H36V102H34ZM32 38C27.0294 38 23 42.0294 23 47H27C27 44.2386 29.2386 42 32 42V38ZM55 38H32V42H55V38ZM64 47C64 42.0294 59.9706 38 55 38V42C57.7614 42 60 44.2386 60 47H64ZM64 95V47H60V95H64ZM55 104C59.9706 104 64 99.9706 64 95H60C60 97.7614 57.7614 100 55 100V104ZM54 104H55V100H54V104ZM52 89.9644V102H56V89.9644H52ZM44 98.3755C49.247 98.3755 53.7638 95.267 55.8172 90.7997L52.1828 89.1292C50.7577 92.2294 47.6274 94.3755 44 94.3755V98.3755ZM32.1828 90.7997C34.2362 95.267 38.753 98.3755 44 98.3755V94.3755C40.3726 94.3755 37.2423 92.2294 35.8172 89.1292L32.1828 90.7997ZM36 102V89.9644H32V102H36ZM32 104H34V100H32V104ZM23 95C23 99.9706 27.0294 104 32 104V100C29.2386 100 27 97.7614 27 95H23ZM23 47V95H27V47H23Z" fill="black" mask="url(#path-8-inside-1)"/>
</svg>
