<svg width="86" height="136" viewBox="0 0 86 136" fill="none" xmlns="http://www.w3.org/2000/svg">
<path d="M32.9803 4.63863C40.8671 15.1812 50.4912 27.6824 60.8177 27.2192M44 1C40.05 1 36.3903 2.23741 33.3857 4.34589C37.3532 9.64924 41.7303 15.4057 46.4031 19.7633C51.1157 24.1579 56.0312 27.036 61.0442 26.7059C61.9815 24.4919 62.5 22.0571 62.5 19.5C62.5 9.28273 54.2173 1 44 1ZM60.5743 27.728C55.3289 27.8557 50.3289 24.7915 45.7211 20.4947C40.973 16.0669 36.5439 10.237 32.5829 4.94216C28.2694 8.32987 25.5 13.5915 25.5 19.5C25.5 29.7173 33.7827 38 44 38C51.2607 38 57.5455 33.8172 60.5743 27.728Z" fill="#F9CE9C" stroke="black"/>
<path d="M33.0851 4.54255C35.9149 7.37234 46.8297 27.9894 60.9787 27.1809C65.0212 19.0957 61.383 10.6064 56.532 5.75534C48.0426 -1.92553 36.7234 0.500005 33.0851 4.54255Z" fill="#543C00" stroke="black"/>
<path fill-rule="evenodd" clip-rule="evenodd" d="M32.9753 135.251V135.48H34.9753V85.9799H32.9753V133.142L22.1239 129.48L21.3943 131.342L32.9753 135.251Z" fill="black"/>
<path fill-rule="evenodd" clip-rule="evenodd" d="M54.6835 135.401V136H56.6835V134V86H54.6835V133.273L45.6835 130L45 131.88L54.6835 135.401Z" fill="black"/>
<path d="M26.6018 56.0068C4.77356 55.6935 0.471429 66.3184 1.0489 71.6701" stroke="black" stroke-width="2"/>
<path d="M62 56.0061C81.2017 55.7243 84.9862 65.2826 84.4782 70.097" stroke="black" stroke-width="2"/>
<mask id="path-7-inside-1" fill="white">
<path fill-rule="evenodd" clip-rule="evenodd" d="M26 47.6245C26 43.7585 29.134 40.6245 33 40.6245H56C59.866 40.6245 63 43.7585 63 47.6245V95.6245C63 99.4905 59.866 102.625 56 102.625H55V90.589C53.2608 94.3727 49.4372 97 45 97C40.5628 97 36.7392 94.3727 35 90.589V102.625H33C29.134 102.625 26 99.4905 26 95.6245V47.6245Z"/>
</mask>
<path fill-rule="evenodd" clip-rule="evenodd" d="M26 47.6245C26 43.7585 29.134 40.6245 33 40.6245H56C59.866 40.6245 63 43.7585 63 47.6245V95.6245C63 99.4905 59.866 102.625 56 102.625H55V90.589C53.2608 94.3727 49.4372 97 45 97C40.5628 97 36.7392 94.3727 35 90.589V102.625H33C29.134 102.625 26 99.4905 26 95.6245V47.6245Z" fill="#3EACCF"/>
<path d="M55 102.625H53V104.625H55V102.625ZM55 90.589H57L53.1828 89.7537L55 90.589ZM35 90.589L36.8172 89.7537L33 90.589H35ZM35 102.625V104.625H37V102.625H35ZM33 38.6245C28.0294 38.6245 24 42.654 24 47.6245H28C28 44.8631 30.2386 42.6245 33 42.6245V38.6245ZM56 38.6245H33V42.6245H56V38.6245ZM65 47.6245C65 42.654 60.9706 38.6245 56 38.6245V42.6245C58.7614 42.6245 61 44.8631 61 47.6245H65ZM65 95.6245V47.6245H61V95.6245H65ZM56 104.625C60.9706 104.625 65 100.595 65 95.6245H61C61 98.386 58.7614 100.625 56 100.625V104.625ZM55 104.625H56V100.625H55V104.625ZM53 90.589V102.625H57V90.589H53ZM45 99C50.247 99 54.7638 95.8915 56.8172 91.4243L53.1828 89.7537C51.7577 92.854 48.6274 95 45 95V99ZM33.1828 91.4243C35.2362 95.8915 39.753 99 45 99V95C41.3726 95 38.2423 92.854 36.8172 89.7537L33.1828 91.4243ZM37 102.625V90.589H33V102.625H37ZM33 104.625H35V100.625H33V104.625ZM24 95.6245C24 100.595 28.0294 104.625 33 104.625V100.625C30.2386 100.625 28 98.386 28 95.6245H24ZM24 47.6245V95.6245H28V47.6245H24Z" fill="black" mask="url(#path-7-inside-1)"/>
</svg>
